# 3ds Max Wavefront OBJ Exporter v0.97b - (c)2007 guruware
# File Created: 06.06.2015 17:11:54

mtllib Fridge.mtl

#
# object Fridge1_Model
#

v  -39.9897 0.0000 66.6454
v  -39.9897 0.0000 20.4092
v  10.2135 0.0000 20.4092
v  10.2135 0.0000 66.6454
v  -36.7545 80.5570 62.6276
v  6.9783 80.5570 62.6276
v  6.9783 80.5570 19.5344
v  -36.7545 80.5570 19.5344
v  10.2135 77.3044 66.6454
v  -39.9897 77.3044 66.6454
v  10.2135 77.3044 20.4092
v  -39.9897 77.3044 20.4092
v  10.6328 77.3044 67.0660
v  -40.4090 77.3044 67.0660
v  10.5034 77.3044 17.2798
v  10.6328 77.3044 17.2858
v  -40.4090 77.3044 17.2858
v  -40.2796 77.3044 17.2798
v  10.6328 80.5253 67.0660
v  -40.4090 80.5253 67.0660
v  10.6328 80.5253 17.2858
v  9.2344 77.3044 15.8831
v  -39.0106 77.3044 15.8831
v  -39.0106 80.5253 15.8831
v  9.2344 80.5253 15.8831
v  -40.4090 80.5253 17.2858
v  -40.2876 80.7177 66.9168
v  10.5114 80.7177 66.9168
v  7.2742 80.7177 62.9383
v  -37.0504 80.7177 62.9383
v  10.4662 80.7177 17.3820
v  7.2742 80.7177 19.2238
v  9.1370 80.7177 16.0490
v  -38.9132 80.7177 16.0490
v  -37.0504 80.7177 19.2238
v  -40.2424 80.7177 17.3820
v  -39.4475 77.3044 18.3889
v  -38.8881 77.3044 18.3889
v  -39.7632 77.3044 17.9115
v  -39.4849 77.3044 17.4100
v  -38.8507 77.3044 17.4100
v  -38.5724 77.3044 17.9115
v  -39.4475 72.7523 18.3889
v  -38.8881 72.7523 18.3889
v  -39.7632 72.7523 17.9115
v  -39.4849 72.7523 17.4100
v  -38.8507 72.7523 17.4100
v  -38.5724 72.7523 17.9115
v  -40.2276 0.9550 18.9378
v  -40.2276 0.9550 16.2406
v  -38.8520 0.9550 14.8649
v  9.0123 0.9550 14.8649
v  10.3880 0.9550 16.2406
v  10.3880 0.9550 18.9378
v  7.0210 76.6774 18.1335
v  -36.8607 76.6774 18.1335
v  -40.4852 76.6774 19.1954
v  10.6456 76.6774 19.1954
v  10.3880 1.6682 18.9378
v  -40.2276 1.6682 18.9378
v  10.7942 0.9550 16.0723
v  10.7942 1.6682 16.0723
v  -39.0202 0.9550 14.4587
v  -39.0202 1.6682 14.4587
v  9.1806 1.6682 14.4587
v  9.1806 0.9550 14.4587
v  -40.6339 1.6682 16.0723
v  -40.6339 0.9550 16.0723
v  10.3880 71.3221 18.9378
v  10.3880 71.3221 16.2406
v  10.6456 71.3221 15.9830
v  10.6456 71.3221 19.1954
v  9.0123 71.3221 14.8649
v  -38.8520 71.3221 14.8649
v  -39.1096 71.3221 14.6073
v  9.2699 71.3221 14.6073
v  -40.2276 71.3221 16.2406
v  -40.2276 71.3221 18.9378
v  -40.4852 71.3221 19.1954
v  -40.4852 71.3221 15.9830
v  10.6456 76.6774 15.9830
v  -36.8964 73.7539 14.6073
v  7.0568 73.7539 14.6073
v  -40.4852 76.6774 15.9830
v  8.3536 76.6774 16.8009
v  -38.1933 76.6774 14.6073
v  -39.1096 76.6774 14.6073
v  -38.1933 76.6774 16.8009
v  -37.2926 74.1660 14.6073
v  9.2699 76.6774 14.6073
v  7.4529 74.1660 14.6073
v  8.3536 76.6774 14.6073
v  6.1719 74.1126 18.1335
v  -36.0115 74.1126 18.1335
v  -37.2926 74.1328 16.8011
v  7.4529 74.1328 16.8011
v  7.1327 74.1177 17.8004
v  8.0203 76.6774 17.8002
v  -37.8571 76.6774 17.8078
v  -36.9719 74.1177 17.8015
v  6.1076 73.7068 17.7215
v  -35.9473 73.7068 17.7215
v  7.0568 73.7217 16.7342
v  -36.8964 73.7217 16.7342
v  6.8195 73.7105 17.4747
v  -36.6591 73.7105 17.4747
v  -14.9198 73.7268 16.3963
v  10.3880 1.6682 16.2406
v  9.0123 1.6682 14.8649
v  -38.8520 1.6682 14.8649
v  -40.2276 1.6682 16.2406
v  5.5335 -0.9027 23.9010
v  5.5335 -0.9027 21.2743
v  8.1825 -0.9027 21.2743
v  8.1825 -0.9027 23.9010
v  5.5335 2.4946 23.9010
v  8.1825 2.4946 23.9010
v  8.1825 2.4946 21.2743
v  5.5335 2.4946 21.2743
v  5.5335 -0.9027 64.7528
v  5.5335 -0.9027 62.1261
v  8.1825 -0.9027 62.1261
v  8.1825 -0.9027 64.7528
v  5.5335 2.4946 64.7528
v  8.1825 2.4946 64.7528
v  8.1825 2.4946 62.1261
v  5.5335 2.4946 62.1261
v  -39.3483 -0.9027 64.7528
v  -39.3483 -0.9027 62.1261
v  -36.6992 -0.9027 62.1261
v  -36.6992 -0.9027 64.7528
v  -39.3483 2.4946 64.7528
v  -36.6992 2.4946 64.7528
v  -36.6992 2.4946 62.1261
v  -39.3483 2.4946 62.1261
v  -39.3483 -0.9027 23.9010
v  -39.3483 -0.9027 21.2743
v  -36.6992 -0.9027 21.2743
v  -36.6992 -0.9027 23.9010
v  -39.3483 2.4946 23.9010
v  -36.6992 2.4946 23.9010
v  -36.6992 2.4946 21.2743
v  -39.3483 2.4946 21.2743
# 143 vertices

vn 0.0000 -1.0000 -0.0000
vn 0.0000 1.0000 -0.0000
vn 0.0000 0.0000 1.0000
vn 1.0000 0.0000 0.0000
vn 0.0000 0.0000 -1.0000
vn -1.0000 0.0000 -0.0000
vn 1.0000 0.0000 -0.0000
vn 0.7082 0.0000 -0.7060
vn -0.7082 0.0000 -0.7060
vn 0.2463 0.9365 -0.2495
vn -0.2463 0.9365 -0.2495
vn -0.2551 0.9364 -0.2411
vn 0.2551 0.9364 -0.2411
vn -0.2463 0.9365 0.2495
vn -0.2551 0.9364 0.2411
vn 0.2463 0.9365 0.2495
vn 0.2551 0.9364 0.2411
vn 0.4735 0.0000 0.8808
vn -0.4735 0.0000 0.8808
vn -0.9992 0.0000 0.0389
vn -0.5074 0.0000 -0.8617
vn 0.5074 0.0000 -0.8617
vn 0.9992 0.0000 0.0389
vn -0.5340 0.7022 0.4709
vn -0.4895 0.7062 0.5115
vn 0.4895 0.7060 0.5118
vn 0.5335 0.7024 0.4711
vn 0.6506 0.7047 -0.2831
vn 0.6655 0.7025 -0.2523
vn 0.2520 0.7020 -0.6661
vn 0.2844 0.7046 -0.6501
vn -0.2844 0.7046 -0.6501
vn -0.2521 0.7020 -0.6661
vn -0.6658 0.7023 -0.2520
vn -0.6506 0.7049 -0.2828
vn 0.6556 0.0000 0.7551
vn -0.6545 0.0593 0.7538
vn -0.6545 -0.0593 0.7538
vn 0.8748 -0.3866 -0.2921
vn 0.8748 0.3866 -0.2921
vn -0.2971 -0.6303 -0.7173
vn -0.2971 0.6303 -0.7173
vn 0.2971 0.6303 -0.7173
vn 0.2971 -0.6303 -0.7173
vn -0.7449 0.6190 -0.2488
vn -0.7449 -0.6190 -0.2488
vn 0.9239 0.0000 -0.3827
vn 0.3827 0.0000 -0.9239
vn -0.3827 0.0000 -0.9239
vn -0.9239 0.0000 -0.3827
vn 0.1878 0.0622 -0.9802
vn -0.1928 0.0662 -0.9790
vn -0.1347 0.3956 -0.9085
vn 0.1334 0.3964 -0.9083
vn 0.9333 0.3292 -0.1438
vn 0.8460 0.5177 -0.1279
vn 0.8514 0.5245 0.0068
vn 0.9413 0.3376 -0.0000
vn -0.8514 0.5245 0.0068
vn -0.8465 0.5165 -0.1290
vn -0.9323 0.3313 -0.1453
vn -0.9413 0.3376 -0.0000
vn -0.6018 0.4718 -0.6444
vn -0.7250 0.2545 -0.6400
vn 0.7239 0.2494 -0.6433
vn 0.6005 0.4747 -0.6435
vn -0.0696 0.9150 -0.3973
vn 0.0696 0.9150 -0.3973
vn -0.4156 0.9081 -0.0513
vn -0.3931 0.9194 0.0139
vn 0.3931 0.9194 0.0139
vn 0.4156 0.9081 -0.0514
vn -0.3232 0.8982 -0.2979
vn 0.3232 0.8983 -0.2977
vn 0.0000 0.9999 0.0151
vn 0.7071 0.0000 -0.7071
vn -0.7071 0.0000 -0.7071
vn -0.0000 1.0000 0.0000
# 78 vertex normals

vt 0.7284 0.9300 0.0000
vt 0.7287 0.7227 0.0000
vt 0.9537 0.7227 0.0000
vt 0.9540 0.9300 0.0000
vt 0.5728 0.3805 0.0000
vt 0.7687 0.3805 0.0000
vt 0.7687 0.5737 0.0000
vt 0.5728 0.5737 0.0000
vt 0.5577 0.0079 0.0000
vt 0.7834 0.0080 0.0000
vt 0.7845 0.3547 0.0000
vt 0.5567 0.3547 0.0000
vt 0.9912 0.0080 0.0000
vt 0.9912 0.3545 0.0000
vt 0.1248 0.0076 0.0000
vt 0.3499 0.0078 0.0000
vt 0.3498 0.3544 0.0000
vt 0.1246 0.3542 0.0000
vt 0.7871 0.3543 0.0000
vt 0.5542 0.3543 0.0000
vt 0.7879 0.5634 0.0000
vt 0.7866 0.5774 0.0000
vt 0.7882 0.5789 0.0000
vt 0.5534 0.5634 0.0000
vt 0.5531 0.5789 0.0000
vt 0.5547 0.5774 0.0000
vt 0.7830 0.3604 0.0000
vt 0.5584 0.3604 0.0000
vt 0.7782 0.5817 0.0000
vt 0.7784 0.6039 0.0000
vt 0.5627 0.6041 0.0000
vt 0.5628 0.5905 0.0000
vt 0.7785 0.5904 0.0000
vt 0.5632 0.5817 0.0000
vt 0.7847 0.6087 0.0000
vt 0.7864 0.6061 0.0000
vt 0.5557 0.6082 0.0000
vt 0.5544 0.6058 0.0000
vt 0.7869 0.5892 0.0000
vt 0.5545 0.5890 0.0000
vt 0.5575 0.3610 0.0000
vt 0.7839 0.3610 0.0000
vt 0.7698 0.3790 0.0000
vt 0.5716 0.3790 0.0000
vt 0.7813 0.5828 0.0000
vt 0.7701 0.5753 0.0000
vt 0.7853 0.5861 0.0000
vt 0.7782 0.5899 0.0000
vt 0.5632 0.5899 0.0000
vt 0.5714 0.5753 0.0000
vt 0.5561 0.5860 0.0000
vt 0.5602 0.5828 0.0000
vt 0.7828 0.6229 0.0000
vt 0.5574 0.6228 0.0000
vt 0.5598 0.6137 0.0000
vt 0.5627 0.6138 0.0000
vt 0.5580 0.6117 0.0000
vt 0.5598 0.6103 0.0000
vt 0.5630 0.6103 0.0000
vt 0.5643 0.6120 0.0000
vt 0.1070 0.1866 0.0000
vt 0.1070 0.1972 0.0000
vt 0.0214 0.1972 0.0000
vt 0.0214 0.1866 0.0000
vt 0.1070 0.2061 0.0000
vt 0.0214 0.2061 0.0000
vt 0.1070 0.2156 0.0000
vt 0.0214 0.2156 0.0000
vt 0.1070 0.2275 0.0000
vt 0.0214 0.2275 0.0000
vt 0.1070 0.2369 0.0000
vt 0.0214 0.2369 0.0000
vt 0.1070 0.2459 0.0000
vt 0.0214 0.2459 0.0000
vt 0.5071 0.3668 0.0000
vt 0.5071 0.3855 0.0000
vt 0.4980 0.3951 0.0000
vt 0.1645 0.3951 0.0000
vt 0.1554 0.3855 0.0000
vt 0.1554 0.3668 0.0000
vt 0.1601 0.9651 0.0000
vt 0.5053 0.9651 0.0000
vt 0.5337 0.9735 0.0000
vt 0.1318 0.9735 0.0000
vt 0.1554 0.3618 0.0000
vt 0.5071 0.3618 0.0000
vt 0.1494 0.3983 0.0000
vt 0.1498 0.4030 0.0000
vt 0.1308 0.4058 0.0000
vt 0.1299 0.4004 0.0000
vt 0.4982 0.3978 0.0000
vt 0.4981 0.4028 0.0000
vt 0.1644 0.4028 0.0000
vt 0.1643 0.3978 0.0000
vt 0.5327 0.4004 0.0000
vt 0.5318 0.4058 0.0000
vt 0.5127 0.4030 0.0000
vt 0.5131 0.3983 0.0000
vt 0.0878 0.9631 0.0000
vt 0.0917 0.9416 0.0000
vt 0.0942 0.9410 0.0000
vt 0.0893 0.9658 0.0000
vt 0.1654 0.8956 0.0000
vt 0.4984 0.8956 0.0000
vt 0.5000 0.8972 0.0000
vt 0.1638 0.8972 0.0000
vt 0.5738 0.9416 0.0000
vt 0.5777 0.9631 0.0000
vt 0.5761 0.9658 0.0000
vt 0.5713 0.9410 0.0000
vt 0.1339 0.9495 0.0000
vt 0.4847 0.9140 0.0000
vt 0.1792 0.9140 0.0000
vt 0.5315 0.9495 0.0000
vt 0.1507 0.9539 0.0000
vt 0.5177 0.9363 0.0000
vt 0.5253 0.9369 0.0000
vt 0.5148 0.9539 0.0000
vt 0.4998 0.9344 0.0000
vt 0.4934 0.9344 0.0000
vt 0.4873 0.9169 0.0000
vt 0.1641 0.9344 0.0000
vt 0.1765 0.9169 0.0000
vt 0.1704 0.9344 0.0000
vt 0.4845 0.9557 0.0000
vt 0.1793 0.9557 0.0000
vt 0.1854 0.9383 0.0000
vt 0.4785 0.9383 0.0000
vt 0.5072 0.9297 0.0000
vt 0.4884 0.9297 0.0000
vt 0.4887 0.9143 0.0000
vt 0.5073 0.9145 0.0000
vt 0.1752 0.9143 0.0000
vt 0.1754 0.9297 0.0000
vt 0.1567 0.9297 0.0000
vt 0.1566 0.9145 0.0000
vt 0.1784 0.9370 0.0000
vt 0.1719 0.9552 0.0000
vt 0.4920 0.9553 0.0000
vt 0.4855 0.9370 0.0000
vt 0.1526 0.9623 0.0000
vt 0.5128 0.9624 0.0000
vt 0.1602 0.9420 0.0000
vt 0.1575 0.9352 0.0000
vt 0.5064 0.9352 0.0000
vt 0.5036 0.9420 0.0000
vt 0.1858 0.9348 0.0000
vt 0.4780 0.9348 0.0000
vt 0.1793 0.9287 0.0000
vt 0.4846 0.9287 0.0000
vt 0.1810 0.9336 0.0000
vt 0.4829 0.9336 0.0000
vt 0.3319 0.9261 0.0000
vt 0.0948 0.9259 0.0000
vt 0.0978 0.9262 0.0000
vt 0.5706 0.9259 0.0000
vt 0.5677 0.9262 0.0000
vt 0.1402 0.9369 0.0000
vt 0.1477 0.9363 0.0000
vt 0.1504 0.8897 0.0000
vt 0.1313 0.8897 0.0000
vt 0.1501 0.4057 0.0000
vt 0.4978 0.8896 0.0000
vt 0.1648 0.8896 0.0000
vt 0.1645 0.4056 0.0000
vt 0.4980 0.4056 0.0000
vt 0.5313 0.8897 0.0000
vt 0.5121 0.8897 0.0000
vt 0.5124 0.4057 0.0000
vt 0.5133 0.3958 0.0000
vt 0.1492 0.3958 0.0000
vt 0.1072 0.0811 0.0000
vt 0.1072 0.1549 0.0000
vt 0.0328 0.1549 0.0000
vt 0.0328 0.0811 0.0000
vt 0.0117 0.1556 0.0000
vt 0.0117 0.0811 0.0000
vt 0.1072 0.1556 0.0000
vt 0.0117 0.1549 0.0000
# 179 texture coords

g Fridge1_Model
usemtl 01___Default
s 1
f 1/1/1 2/2/1 3/3/1 
f 3/3/1 4/4/1 1/1/1 
s off
f 5/5/2 6/6/2 7/7/2 
f 7/7/2 8/8/2 5/5/2 
s 2
f 1/9/3 4/10/3 9/11/3 
f 9/11/3 10/12/3 1/9/3 
s 4
f 4/10/4 3/13/4 11/14/4 
f 11/14/4 9/11/4 4/10/4 
s 2
f 3/15/5 2/16/5 12/17/5 
f 12/17/5 11/18/5 3/15/5 
s 4
f 2/16/6 1/9/6 10/12/6 
f 10/12/6 12/17/6 2/16/6 
s 1
f 10/12/1 9/11/1 13/19/1 
f 13/19/1 14/20/1 10/12/1 
f 11/21/1 15/22/1 16/23/1 
f 9/11/1 11/21/1 16/23/1 
f 9/11/1 16/23/1 13/19/1 
f 12/24/1 10/12/1 14/20/1 
f 14/20/1 17/25/1 18/26/1 
f 12/24/1 14/20/1 18/26/1 
s 2
f 14/20/3 13/19/3 19/27/3 
f 19/27/3 20/28/3 14/20/3 
s 4
f 13/19/7 16/23/7 21/29/7 
f 21/29/7 19/27/7 13/19/7 
s 2
f 22/30/5 23/31/5 24/32/5 
f 24/32/5 25/33/5 22/30/5 
s 4
f 17/25/6 14/20/6 20/28/6 
f 20/28/6 26/34/6 17/25/6 
s 1
f 15/35/1 22/30/1 16/36/1 
f 18/37/1 17/38/1 23/31/1 
s 8
f 16/36/8 22/30/8 25/33/8 
f 25/33/8 21/39/8 16/36/8 
f 23/31/9 17/38/9 26/40/9 
f 26/40/9 24/32/9 23/31/9 
s off
f 27/41/2 28/42/2 29/43/2 
f 29/43/2 30/44/2 27/41/2 
f 28/42/2 31/45/2 32/46/2 
f 32/46/2 29/43/2 28/42/2 
f 31/47/2 33/48/2 32/46/2 
f 33/48/2 34/49/2 35/50/2 
f 35/50/2 32/46/2 33/48/2 
f 34/49/2 36/51/2 35/50/2 
f 36/52/2 27/41/2 30/44/2 
f 30/44/2 35/50/2 36/52/2 
s 1
f 30/44/10 29/43/11 6/6/12 
f 6/6/12 5/5/13 30/44/10 
f 29/43/11 32/46/14 7/7/15 
f 7/7/15 6/6/12 29/43/11 
f 32/46/14 35/50/16 8/8/17 
f 8/8/17 7/7/15 32/46/14 
f 35/50/16 30/44/10 5/5/13 
f 5/5/13 8/8/17 35/50/16 
f 11/53/1 12/54/1 37/55/1 
f 37/55/1 38/56/1 11/53/1 
f 12/54/1 18/37/1 39/57/1 
f 39/57/1 37/55/1 12/54/1 
f 18/37/1 23/31/1 40/58/1 
f 40/58/1 39/57/1 18/37/1 
f 23/31/1 22/30/1 41/59/1 
f 41/59/1 40/58/1 23/31/1 
f 22/30/1 15/35/1 42/60/1 
f 42/60/1 41/59/1 22/30/1 
f 15/35/1 11/53/1 38/56/1 
f 38/56/1 42/60/1 15/35/1 
s 134217728
f 38/61/18 37/62/19 43/63/19 
f 43/63/19 44/64/18 38/61/18 
f 37/62/19 39/65/20 45/66/20 
f 45/66/20 43/63/19 37/62/19 
f 39/65/20 40/67/21 46/68/21 
f 46/68/21 45/66/20 39/65/20 
f 40/67/21 41/69/22 47/70/22 
f 47/70/22 46/68/21 40/67/21 
f 41/69/22 42/71/23 48/72/23 
f 48/72/23 47/70/22 41/69/22 
f 42/71/23 38/73/18 44/74/18 
f 44/74/18 48/72/23 42/71/23 
s 16
f 27/41/24 20/28/25 19/27/26 
f 19/27/26 28/42/27 27/41/24 
f 28/42/27 19/27/26 21/29/28 
f 21/29/28 31/45/29 28/42/27 
f 33/48/30 25/33/31 24/32/32 
f 24/32/32 34/49/33 33/48/30 
f 36/52/34 26/34/35 20/28/25 
f 20/28/25 27/41/24 36/52/34 
f 31/47/29 21/39/28 25/33/31 
f 25/33/31 33/48/30 31/47/29 
f 34/49/33 24/32/32 26/40/35 
f 26/40/35 36/51/34 34/49/33 
s 1
f 49/75/1 50/76/1 51/77/1 
f 51/77/1 52/78/1 53/79/1 
f 49/75/1 51/77/1 53/79/1 
f 49/75/1 53/79/1 54/80/1 
s 2
f 55/81/2 56/82/2 57/83/2 
f 57/83/2 58/84/2 55/81/2 
s 8
f 54/80/36 59/85/36 60/86/37 
f 60/86/37 49/75/38 54/80/36 
f 61/87/39 62/88/40 59/89/36 
f 59/89/36 54/90/36 61/87/39 
f 63/91/41 64/92/42 65/93/43 
f 65/93/43 66/94/44 63/91/41 
f 49/95/38 60/96/37 67/97/45 
f 67/97/45 68/98/46 49/95/38 
s 1
f 69/99/1 70/100/1 71/101/1 
f 71/101/1 72/102/1 69/99/1 
f 73/103/1 74/104/1 75/105/1 
f 75/105/1 76/106/1 73/103/1 
f 77/107/1 78/108/1 79/109/1 
f 79/109/1 80/110/1 77/107/1 
s 8
f 72/102/7 71/101/47 81/111/47 
f 81/111/47 58/84/7 72/102/7 
f 82/112/5 83/113/5 76/106/48 
f 76/106/48 75/105/49 82/112/5 
f 80/110/50 79/109/6 57/83/6 
f 57/83/6 84/114/50 80/110/50 
s 2
f 58/84/2 81/111/2 85/115/2 
f 86/116/2 87/117/2 88/118/2 
s 8
f 75/105/49 87/119/49 86/120/5 
f 86/120/5 89/121/5 75/105/49 
f 90/122/48 76/106/48 91/123/5 
f 91/123/5 92/124/5 90/122/48 
s 1
f 56/125/51 55/126/52 93/127/53 
f 93/127/53 94/128/54 56/125/51 
f 88/129/55 95/130/56 89/131/57 
f 89/131/57 86/132/58 88/129/55 
f 91/133/59 96/134/60 85/135/61 
f 85/135/61 92/136/62 91/133/59 
f 97/137/63 93/127/53 55/126/52 
f 55/126/52 98/138/64 97/137/63 
f 99/139/65 56/125/51 94/128/54 
f 94/128/54 100/140/66 99/139/65 
s 2
f 58/84/2 85/115/2 98/141/2 
f 58/84/2 98/141/2 55/81/2 
f 57/83/2 56/82/2 99/142/2 
f 57/83/2 99/142/2 88/118/2 
s 1
f 96/134/60 97/137/63 98/143/64 
f 98/143/64 85/144/61 96/134/60 
f 88/145/55 99/146/65 100/140/66 
f 100/140/66 95/130/56 88/145/55 
s 8
f 75/105/49 89/121/5 82/112/5 
f 76/106/48 83/113/5 91/123/5 
s 1
f 93/127/53 101/147/67 102/148/68 
f 102/148/68 94/128/54 93/127/53 
f 103/149/69 96/134/60 91/133/59 
f 91/133/59 83/113/70 103/149/69 
f 82/112/71 89/131/57 95/130/56 
f 95/130/56 104/150/72 82/112/71 
f 96/134/60 103/149/69 105/151/73 
f 105/151/73 97/137/63 96/134/60 
f 94/128/54 102/148/68 106/152/74 
f 106/152/74 100/140/66 94/128/54 
f 97/137/63 105/151/73 101/147/67 
f 101/147/67 93/127/53 97/137/63 
f 100/140/66 106/152/74 104/150/72 
f 104/150/72 95/130/56 100/140/66 
f 83/113/70 82/112/71 107/153/75 
f 82/112/71 104/150/72 107/153/75 
f 104/150/72 106/152/74 107/153/75 
f 106/152/74 102/148/68 107/153/75 
f 102/148/68 101/147/67 107/153/75 
f 101/147/67 105/151/73 107/153/75 
f 105/151/73 103/149/69 107/153/75 
f 103/149/69 83/113/70 107/153/75 
s 8
f 66/94/44 65/93/43 62/88/40 
f 62/88/40 61/87/39 66/94/44 
f 68/98/46 67/97/45 64/92/42 
f 64/92/42 63/91/41 68/98/46 
s 1
f 70/100/1 73/154/1 76/155/1 
f 76/155/1 71/101/1 70/100/1 
f 74/156/1 77/107/1 80/110/1 
f 80/110/1 75/157/1 74/156/1 
s 8
f 71/101/47 76/155/48 90/158/48 
f 90/158/48 81/111/47 71/101/47 
f 75/157/49 80/110/50 84/114/50 
f 84/114/50 87/117/49 75/157/49 
s 2
f 81/111/2 90/158/2 85/115/2 
f 84/114/2 57/83/2 88/118/2 
f 87/117/2 84/114/2 88/118/2 
f 90/158/2 92/159/2 85/115/2 
f 70/160/47 69/161/7 59/89/7 
f 59/89/7 108/162/47 70/160/47 
s off
f 74/163/5 73/164/5 109/165/5 
f 109/165/5 110/166/5 74/163/5 
s 2
f 78/167/6 77/168/50 111/169/50 
f 111/169/50 60/96/6 78/167/6 
f 73/164/76 70/160/47 108/162/47 
f 108/162/47 109/165/76 73/164/76 
f 77/168/50 74/163/77 110/166/77 
f 110/166/77 111/169/50 77/168/50 
s 8
f 50/170/1 49/95/38 68/98/46 
f 60/96/37 111/169/78 67/97/45 
f 111/169/78 110/166/2 64/92/42 
f 64/92/42 67/97/45 111/169/78 
f 110/166/2 109/165/2 65/93/43 
f 65/93/43 64/92/42 110/166/2 
f 109/165/2 108/162/2 62/88/40 
f 62/88/40 65/93/43 109/165/2 
s off
f 108/162/2 59/89/2 62/88/2 
f 54/90/1 53/171/1 61/87/1 
s 8
f 53/171/1 52/78/1 66/94/44 
f 66/94/44 61/87/39 53/171/1 
f 52/78/1 51/77/1 63/91/41 
f 63/91/41 66/94/44 52/78/1 
f 51/77/1 50/170/1 68/98/46 
f 68/98/46 63/91/41 51/77/1 
s 2
f 112/172/1 113/173/1 114/174/1 
f 114/174/1 115/175/1 112/172/1 
s 4
f 116/173/2 117/174/2 118/175/2 
f 118/175/2 119/172/2 116/173/2 
s 8
f 112/176/3 115/177/3 117/172/3 
f 117/172/3 116/178/3 112/176/3 
s 16
f 115/179/7 114/177/7 118/172/7 
f 118/172/7 117/173/7 115/179/7 
s 32
f 114/176/5 113/177/5 119/172/5 
f 119/172/5 118/178/5 114/176/5 
s 64
f 113/179/6 112/177/6 116/172/6 
f 116/172/6 119/173/6 113/179/6 
s 2
f 120/172/1 121/173/1 122/174/1 
f 122/174/1 123/175/1 120/172/1 
s 4
f 124/173/2 125/174/2 126/175/2 
f 126/175/2 127/172/2 124/173/2 
s 8
f 120/176/3 123/177/3 125/172/3 
f 125/172/3 124/178/3 120/176/3 
s 16
f 123/179/7 122/177/7 126/172/7 
f 126/172/7 125/173/7 123/179/7 
s 32
f 122/176/5 121/177/5 127/172/5 
f 127/172/5 126/178/5 122/176/5 
s 64
f 121/179/6 120/177/6 124/172/6 
f 124/172/6 127/173/6 121/179/6 
s 2
f 128/172/1 129/173/1 130/174/1 
f 130/174/1 131/175/1 128/172/1 
s 4
f 132/173/2 133/174/2 134/175/2 
f 134/175/2 135/172/2 132/173/2 
s 8
f 128/176/3 131/177/3 133/172/3 
f 133/172/3 132/178/3 128/176/3 
s 16
f 131/179/7 130/177/7 134/172/7 
f 134/172/7 133/173/7 131/179/7 
s 32
f 130/176/5 129/177/5 135/172/5 
f 135/172/5 134/178/5 130/176/5 
s 64
f 129/179/6 128/177/6 132/172/6 
f 132/172/6 135/173/6 129/179/6 
s 2
f 136/172/1 137/173/1 138/174/1 
f 138/174/1 139/175/1 136/172/1 
s 4
f 140/173/2 141/174/2 142/175/2 
f 142/175/2 143/172/2 140/173/2 
s 8
f 136/176/3 139/177/3 141/172/3 
f 141/172/3 140/178/3 136/176/3 
s 16
f 139/179/7 138/177/7 142/172/7 
f 142/172/7 141/173/7 139/179/7 
s 32
f 138/176/5 137/177/5 143/172/5 
f 143/172/5 142/178/5 138/176/5 
s 64
f 137/179/6 136/177/6 140/172/6 
f 140/172/6 143/173/6 137/179/6 
# 252 faces

